<svg width="40" height="91" viewBox="0 0 40 91" fill="none" xmlns="http://www.w3.org/2000/svg">
<g clip-path="url(#clip0_42_132)">
<path d="M19.4299 0.0201487C26.3041 5.49669 32.1428 28.0416 30.8192 42.926C29.4244 59.0165 25.7695 67.6739 13.2263 84.2394C14.4921 84.2568 15.5288 84.1602 16.4648 84.2346C17.5354 84.2739 18.6667 84.3264 19.684 84.6113C19.9872 84.6771 20.413 85.348 20.3937 85.7295C20.3745 86.1111 19.8169 86.633 19.4871 86.6901C16.3373 87.1641 13.2141 87.5154 10.017 87.9149C8.98036 88.0115 8.33272 87.4853 8.25595 86.3758C8.1514 82.1745 7.98623 77.9601 7.95563 73.7106C7.97348 72.7502 8.45567 71.6976 8.72198 70.4697C11.1159 72.0174 10.3334 74.162 10.6541 75.903C11.0222 77.7185 11.0604 79.5911 11.3219 81.8978C15.8223 77.5381 19.0627 72.8408 21.5816 67.6657C30.894 48.728 30.7659 29.4144 23.42 10.0141C22.4443 7.48821 21.1861 5.09392 20.1364 2.61626C19.9798 1.87514 19.8098 1.19541 19.4299 0.0201487Z" fill="#EFAA1A"/>
</g>
<defs>
<clipPath id="clip0_42_132">
<rect width="88" height="21" fill="white" transform="translate(39.9531 4.47095) rotate(102.236)"/>
</clipPath>
</defs>
</svg>
