<svg width="32" height="32" viewBox="0 0 32 32" fill="none" xmlns="http://www.w3.org/2000/svg">
<path d="M24.92 15.3731C24.16 15.1731 23.2666 15.0664 22.1999 15.0664C20.7199 15.0664 20.1733 15.4264 19.4133 15.9997C19.3733 16.0264 19.3333 16.0664 19.2933 16.1064L18.0266 17.4531C16.9733 18.5864 15.0399 18.5864 13.9733 17.4531L12.7066 16.1197C12.6666 16.0664 12.6266 16.0264 12.5866 15.9997C11.8133 15.4264 11.2666 15.0664 9.79995 15.0664C8.73328 15.0664 7.83995 15.1597 7.07995 15.3731C3.90662 16.2264 3.90662 18.7464 3.90662 20.9597V22.1997C3.90662 25.5464 3.90662 29.3331 11.0399 29.3331H20.9599C25.6933 29.3331 28.0933 26.9331 28.0933 22.1997V20.9597C28.0933 18.7464 28.0933 16.2264 24.92 15.3731Z" fill="#FE4C00"/>
<path d="M19.7201 2.66699H12.2801C6.38672 2.66699 6.38672 5.80033 6.38672 8.56033V13.4937C6.44005 13.467 6.50672 13.4537 6.56005 13.4403C7.49339 13.187 8.54672 13.067 9.80005 13.067C11.8534 13.067 12.8267 13.667 13.7867 14.4003C13.9201 14.4937 14.0534 14.6137 14.1734 14.747L15.4267 16.067C15.5601 16.2137 15.7734 16.2937 16.0001 16.2937C16.2267 16.2937 16.4401 16.2137 16.5601 16.0803L17.8401 14.7337C17.9467 14.627 18.0667 14.507 18.2001 14.4137C19.1867 13.667 20.1467 13.067 22.2001 13.067C23.4534 13.067 24.5067 13.187 25.4401 13.4403C25.4934 13.4537 25.5601 13.467 25.6134 13.4937V8.56033C25.6134 5.80033 25.6134 2.66699 19.7201 2.66699ZM18.0667 11.3337H13.9334C13.4267 11.3337 13.0001 10.907 13.0001 10.4003C13.0001 9.88033 13.4267 9.46699 13.9334 9.46699H18.0667C18.5734 9.46699 19.0001 9.88033 19.0001 10.4003C19.0001 10.907 18.5734 11.3337 18.0667 11.3337ZM19.1067 7.61366H12.8934C12.3867 7.61366 11.9734 7.18699 11.9734 6.68033C11.9734 6.16033 12.3867 5.74699 12.8934 5.74699H19.1067C19.6134 5.74699 20.0267 6.16033 20.0267 6.68033C20.0267 7.18699 19.6134 7.61366 19.1067 7.61366Z" fill="#FE4C00"/>
</svg>
