<svg width="25" height="24" viewBox="0 0 25 24" fill="none" xmlns="http://www.w3.org/2000/svg">
<path d="M17.5 2H7.5C4.73858 2 2.5 4.23858 2.5 7V17C2.5 19.7614 4.73858 22 7.5 22H17.5C20.2614 22 22.5 19.7614 22.5 17V7C22.5 4.23858 20.2614 2 17.5 2Z" stroke="white" stroke-linecap="round" stroke-linejoin="round"/>
<path d="M16.4997 11.3701C16.6231 12.2023 16.481 13.0523 16.0935 13.7991C15.706 14.5459 15.0929 15.1515 14.3413 15.5297C13.5898 15.908 12.7382 16.0397 11.9075 15.906C11.0768 15.7723 10.3095 15.3801 9.71455 14.7852C9.11962 14.1903 8.72744 13.4229 8.59377 12.5923C8.46011 11.7616 8.59177 10.91 8.97003 10.1584C9.34829 9.40691 9.95389 8.7938 10.7007 8.4063C11.4475 8.0188 12.2975 7.87665 13.1297 8.00006C13.9786 8.12594 14.7646 8.52152 15.3714 9.12836C15.9782 9.73521 16.3738 10.5211 16.4997 11.3701Z" stroke="white" stroke-linecap="round" stroke-linejoin="round"/>
<path d="M18 6.5H18.01" stroke="white" stroke-linecap="round" stroke-linejoin="round"/>
</svg>
