<svg width="32" height="32" viewBox="0 0 32 32" fill="none" xmlns="http://www.w3.org/2000/svg">
<path d="M10.1733 4.75991C10.4125 4.62945 10.6667 4.83015 10.6667 5.10259V23.3028C10.6667 23.526 10.5158 23.7166 10.313 23.8098C10.2649 23.8319 10.2185 23.8553 10.1733 23.8799L7.04001 25.6666C4.85334 26.9199 3.05334 25.8799 3.05334 23.3466V10.3732C3.05334 9.53324 3.65334 8.49324 4.40001 8.06658L10.1733 4.75991Z" fill="#FE4C00"/>
<path d="M19.7219 8.18246C19.8922 8.26681 20 8.44045 20 8.63052V26.5368C20 26.9053 19.615 27.1472 19.283 26.9872L13.283 24.0965C13.11 24.0132 13 23.8381 13 23.6461V5.65909C13 5.28823 13.3896 5.04644 13.7219 5.21103L19.7219 8.18246Z" fill="#FE4C00"/>
<path d="M29.3333 8.65309V21.6264C29.3333 22.4664 28.7333 23.5064 27.9866 23.9331L23.0819 26.744C22.7486 26.9351 22.3333 26.6944 22.3333 26.3102V8.34342C22.3333 8.1639 22.4295 7.99816 22.5855 7.90917L25.3466 6.33309C27.5333 5.07976 29.3333 6.11976 29.3333 8.65309Z" fill="#FE4C00"/>
</svg>
