<svg width="32" height="32" viewBox="0 0 32 32" fill="none" xmlns="http://www.w3.org/2000/svg">
<path d="M27.9867 12.947C27.5333 12.7603 26.9333 12.667 26.1867 12.667H19.1467C16.8267 12.667 16 13.4937 16 15.8403V26.1603C16 26.9337 16.0933 27.5337 16.2933 28.0003C16.7067 28.9603 17.5867 29.3337 19.1467 29.3337H26.1867C28.5067 29.3337 29.3333 28.4937 29.3333 26.1603V15.8403C29.3333 14.2537 28.96 13.3603 27.9867 12.947ZM24 26.3337H21.3333C21.3067 26.3337 21.2667 26.3337 21.24 26.3203C21.04 26.307 20.8667 26.2403 20.72 26.107C20.48 25.9337 20.3333 25.6537 20.3333 25.3337C20.3333 24.787 20.7867 24.3337 21.3333 24.3337H24C24.5467 24.3337 25 24.787 25 25.3337C25 25.8803 24.5467 26.3337 24 26.3337Z" fill="#FE4C00"/>
<path d="M27.9867 8.25366V9.33366C27.9867 10.067 27.3867 10.667 26.6533 10.667H19.1467C15.7333 10.667 14 12.4137 14 15.8403V28.0003C14 28.7337 13.4 29.3337 12.6667 29.3337H10.0667C9.53333 29.3337 9.10666 28.907 9.10666 28.387C9.10666 27.8537 9.53333 27.4403 10.0667 27.4403H12.6667V22.3337H7.99999C5.03999 22.187 2.67999 19.747 2.67999 16.747V8.25366C2.67999 5.17366 5.18666 2.66699 8.27999 2.66699H22.4C25.48 2.66699 27.9867 5.17366 27.9867 8.25366Z" fill="#FE4C00"/>
</svg>
