<svg width="82" height="69" viewBox="0 0 82 69" fill="none" xmlns="http://www.w3.org/2000/svg">
<path opacity="0.06" d="M16.8365 69C12.2636 69 8.31432 67.4389 4.98859 64.3167C1.66286 60.9864 0 57.0317 0 52.4525C0 41.4208 2.70215 30.9095 8.10646 20.9185C13.7186 10.9276 20.474 3.95475 28.3726 0L33.3612 3.12217C25.0469 11.0317 19.6426 21.7511 17.1483 35.2805C21.7212 35.2805 25.5665 36.9457 28.6844 40.276C32.0101 43.6063 33.673 47.5611 33.673 52.1403C33.673 56.9276 32.0101 60.9864 28.6844 64.3167C25.5665 67.4389 21.6172 69 16.8365 69ZM65.4753 69C60.9024 69 56.8492 67.4389 53.3156 64.3167C49.9899 60.9864 48.327 57.0317 48.327 52.4525C48.327 41.629 50.9252 31.3258 56.1217 21.543C61.3181 11.552 68.1774 4.37103 76.6996 0L81.6882 3.12217C73.7896 11.0317 68.2814 21.7511 65.1635 35.2805C69.7364 35.2805 73.6857 36.9457 77.0114 40.276C80.3371 43.6063 82 47.5611 82 52.1403C82 56.9276 80.3371 60.9864 77.0114 64.3167C73.8935 67.4389 70.0482 69 65.4753 69Z" fill="#768396"/>
</svg>
