<svg width="82" height="69" viewBox="0 0 82 69" fill="none" xmlns="http://www.w3.org/2000/svg">
<path opacity="0.06" d="M65.1635 69C69.7364 69 73.6857 67.4389 77.0114 64.3167C80.3371 60.9864 82 57.0317 82 52.4525C82 41.4208 79.2978 30.9095 73.8935 20.9185C68.2814 10.9276 61.526 3.95475 53.6274 0L48.6388 3.12217C56.9531 11.0317 62.3574 21.7511 64.8517 35.2805C60.2788 35.2805 56.4335 36.9457 53.3156 40.276C49.9899 43.6063 48.327 47.5611 48.327 52.1403C48.327 56.9276 49.9899 60.9864 53.3156 64.3167C56.4335 67.4389 60.3828 69 65.1635 69ZM16.5247 69C21.0976 69 25.1508 67.4389 28.6844 64.3167C32.0101 60.9864 33.673 57.0317 33.673 52.4525C33.673 41.629 31.0748 31.3258 25.8783 21.543C20.6819 11.552 13.8226 4.37103 5.30038 0L0.311783 3.12217C8.21039 11.0317 13.7186 21.7511 16.8365 35.2805C12.2636 35.2805 8.31433 36.9457 4.9886 40.276C1.66287 43.6063 0 47.5611 0 52.1403C0 56.9276 1.66287 60.9864 4.9886 64.3167C8.10647 67.4389 11.9518 69 16.5247 69Z" fill="#768396"/>
</svg>
