<svg width="32" height="32" viewBox="0 0 32 32" fill="none" xmlns="http://www.w3.org/2000/svg">
<path d="M21.5867 2.66699H10.4133C5.56 2.66699 2.66667 5.56033 2.66667 10.4137V21.5737C2.66667 26.4403 5.56 29.3337 10.4133 29.3337H21.5733C26.4267 29.3337 29.32 26.4403 29.32 21.587V10.4137C29.3333 5.56033 26.44 2.66699 21.5867 2.66699ZM10.2267 7.33366C10.2267 6.78699 10.68 6.33366 11.2267 6.33366C11.7733 6.33366 12.2267 6.78699 12.2267 7.33366V12.5337C12.2267 13.0803 11.7733 13.5337 11.2267 13.5337C10.68 13.5337 10.2267 13.0803 10.2267 12.5337V7.33366ZM12.5818 21.9576C12.3754 22.0409 12.2267 22.2335 12.2267 22.4561V24.667C12.2267 25.2137 11.7733 25.667 11.2267 25.667C10.68 25.667 10.2267 25.2137 10.2267 24.667V22.4561C10.2267 22.2335 10.0779 22.041 9.8716 21.9575C8.53736 21.4177 7.60001 20.1219 7.60001 18.6003C7.60001 16.6003 9.22667 14.9603 11.2267 14.9603C13.2267 14.9603 14.8667 16.587 14.8667 18.6003C14.8667 20.122 13.9179 21.4178 12.5818 21.9576ZM21.7733 24.667C21.7733 25.2137 21.32 25.667 20.7733 25.667C20.2267 25.667 19.7733 25.2137 19.7733 24.667V19.467C19.7733 18.9203 20.2267 18.467 20.7733 18.467C21.32 18.467 21.7733 18.9203 21.7733 19.467V24.667ZM20.7733 17.027C18.7733 17.027 17.1333 15.4003 17.1333 13.387C17.1333 11.8653 18.0821 10.5695 19.4182 10.0298C19.6246 9.94638 19.7733 9.7538 19.7733 9.5312V7.33366C19.7733 6.78699 20.2267 6.33366 20.7733 6.33366C21.32 6.33366 21.7733 6.78699 21.7733 7.33366V9.54454C21.7733 9.76713 21.9221 9.95969 22.1284 10.0432C23.4627 10.583 24.4 11.8787 24.4 13.4003C24.4 15.4003 22.7733 17.027 20.7733 17.027Z" fill="#FE4C00"/>
</svg>
