<svg width="24" height="24" viewBox="0 0 24 24" fill="none" xmlns="http://www.w3.org/2000/svg">
<path d="M20.62 13.0703C20.24 13.0703 19.92 12.7803 19.87 12.4003C19.63 10.1403 18.41 8.09035 16.53 6.79035C16.19 6.55035 16.11 6.09035 16.34 5.75035C16.58 5.41035 17.05 5.33035 17.38 5.56035C19.62 7.11035 21.06 9.55035 21.35 12.2403C21.39 12.6503 21.1 13.0203 20.68 13.0703C20.67 13.0703 20.64 13.0703 20.62 13.0703Z" fill="white"/>
<path d="M3.49003 13.1203C3.46003 13.1203 3.44003 13.1203 3.41003 13.1203C3.00003 13.0703 2.70003 12.7003 2.74003 12.2903C3.01003 9.60026 4.44003 7.17026 6.65003 5.60026C6.99003 5.36026 7.46003 5.44026 7.70003 5.78026C7.94003 6.12026 7.86003 6.59026 7.52003 6.83026C5.66003 8.14026 4.46003 10.1903 4.23003 12.4503C4.20003 12.8303 3.87003 13.1203 3.49003 13.1203Z" fill="white"/>
<path d="M12.06 22.61C10.58 22.61 9.16997 22.27 7.84997 21.61C7.47997 21.42 7.32997 20.97 7.51997 20.6C7.70997 20.23 8.15997 20.08 8.52997 20.27C10.69 21.36 13.29 21.38 15.47 20.33C15.84 20.15 16.29 20.31 16.47 20.68C16.65 21.05 16.49 21.5 16.12 21.68C14.84 22.3 13.48 22.61 12.06 22.61Z" fill="white"/>
<path d="M12.06 8.43988C10.11 8.43988 8.53003 6.85988 8.53003 4.90988C8.53003 2.95988 10.11 1.37988 12.06 1.37988C14.01 1.37988 15.59 2.95988 15.59 4.90988C15.59 6.85988 14 8.43988 12.06 8.43988ZM12.06 2.88988C10.94 2.88988 10.03 3.79988 10.03 4.91988C10.03 6.03988 10.94 6.94988 12.06 6.94988C13.18 6.94988 14.09 6.03988 14.09 4.91988C14.09 3.79988 13.17 2.88988 12.06 2.88988Z" fill="white"/>
<path d="M4.83005 20.6704C2.88005 20.6704 1.30005 19.0904 1.30005 17.1404C1.30005 15.2004 2.88005 13.6104 4.83005 13.6104C6.78005 13.6104 8.36005 15.1904 8.36005 17.1404C8.36005 19.0804 6.78005 20.6704 4.83005 20.6704ZM4.83005 15.1104C3.71005 15.1104 2.80005 16.0204 2.80005 17.1404C2.80005 18.2604 3.71005 19.1704 4.83005 19.1704C5.95005 19.1704 6.86005 18.2604 6.86005 17.1404C6.86005 16.0204 5.95005 15.1104 4.83005 15.1104Z" fill="white"/>
<path d="M19.17 20.6704C17.22 20.6704 15.64 19.0904 15.64 17.1404C15.64 15.2004 17.22 13.6104 19.17 13.6104C21.12 13.6104 22.7 15.1904 22.7 17.1404C22.69 19.0804 21.11 20.6704 19.17 20.6704ZM19.17 15.1104C18.05 15.1104 17.14 16.0204 17.14 17.1404C17.14 18.2604 18.05 19.1704 19.17 19.1704C20.29 19.1704 21.2 18.2604 21.2 17.1404C21.19 16.0204 20.29 15.1104 19.17 15.1104Z" fill="white"/>
</svg>
