<svg width="32" height="33" viewBox="0 0 32 33" fill="none" xmlns="http://www.w3.org/2000/svg">
<path d="M0 16.4805C0 25.317 7.16344 32.4805 16 32.4805C24.8366 32.4805 32 25.317 32 16.4805C32 7.64391 24.8366 0.480469 16 0.480469C7.16344 0.480469 0 7.64391 0 16.4805Z" fill="#01A8DB"/>
<path d="M8.09992 16.1888C12.3949 14.3175 15.2589 13.0839 16.6919 12.4878C20.7834 10.786 21.6335 10.4904 22.1877 10.4806C22.3095 10.4785 22.582 10.5087 22.7586 10.652C22.9076 10.7729 22.9486 10.9363 22.9683 11.0509C22.9879 11.1656 23.0123 11.4268 22.9929 11.6309C22.7712 13.9606 21.8118 19.614 21.3237 22.2232C21.1172 23.3272 20.7105 23.6974 20.3168 23.7337C19.4613 23.8124 18.8116 23.1682 17.9829 22.625C16.6862 21.775 15.9537 21.2459 14.695 20.4165C13.2404 19.4579 14.1834 18.9311 15.0124 18.0701C15.2293 17.8447 18.999 14.4159 19.0719 14.1049C19.0811 14.066 19.0895 13.921 19.0034 13.8444C18.9172 13.7678 18.7901 13.794 18.6983 13.8148C18.5683 13.8444 16.4968 15.2135 12.4839 17.9224C11.8959 18.3261 11.3633 18.5228 10.8862 18.5125C10.3601 18.5012 9.34822 18.2151 8.59598 17.9706C7.67333 17.6707 6.94002 17.5121 7.00388 17.0027C7.03714 16.7374 7.40248 16.4661 8.09992 16.1888Z" fill="white"/>
</svg>
