<svg width="193" height="9" viewBox="0 0 193 9" fill="none" xmlns="http://www.w3.org/2000/svg">
<path fill-rule="evenodd" clip-rule="evenodd" d="M145.506 0.0360335C118.372 0.138346 110.614 0.204903 95.559 0.464712C79.9571 0.733956 68.7917 1.00385 51.0756 1.53996C46.9687 1.66425 42.5712 1.7822 37.4159 1.90631C18.4782 2.36221 14.7931 2.4837 8.67098 2.85374C5.63768 3.03713 3.01441 3.16404 1.54415 3.19863C0.236967 3.22935 0 3.24869 0 3.32464C0 3.39176 2.09066 3.45056 3.23416 3.41558C3.64395 3.40309 4.75419 3.37246 5.70147 3.3476C6.64874 3.3227 8.73334 3.25589 10.3339 3.19911C14.1029 3.06535 15.9126 3.02317 22.3901 2.9181C33.2796 2.74148 41.5057 2.57175 51.6102 2.31521C55.3339 2.22065 60.2782 2.09512 62.5974 2.03624C80.1869 1.58955 101.673 1.19124 114.801 1.06851C130.734 0.919496 180.194 0.787762 179.359 0.896493C179.028 0.939615 173.368 1.26034 169.975 1.42826C166.858 1.58253 161.652 1.80503 155.246 2.05764C152.208 2.17749 148.039 2.34334 145.981 2.42623C138.251 2.73765 135.704 2.83423 131.312 2.98281C111.077 3.6672 97.7115 4.26359 79.1079 5.31204C68.05 5.93523 58.9864 6.65064 48.8718 7.69871C43.1212 8.29458 42.5609 8.40042 43.1269 8.78404C43.4952 9.03364 46.3968 9.06599 52.2491 8.88571C62.9442 8.55628 72.9946 8.30078 82.7307 8.1108C88.8377 7.99164 89.6466 7.97166 95.8559 7.78668C98.1751 7.71762 102.184 7.61664 104.764 7.56236L109.456 7.46367L103.22 7.42477C93.7707 7.3658 83.634 7.36937 80.2957 7.43287C69.2434 7.6431 63.2319 7.8049 53.4127 8.15638C51.0722 8.24017 49.0977 8.30151 49.0248 8.29272C48.3216 8.20769 64.0609 6.92281 71.5693 6.4523C88.5189 5.3901 105.973 4.59758 132.797 3.67216C135.247 3.58764 140.164 3.40274 143.725 3.26131C147.285 3.11984 152.897 2.89712 156.196 2.76629C168.895 2.26283 172.678 2.07531 184.882 1.34447C192.698 0.876375 192.74 0.872369 192.953 0.564527C193.187 0.226055 192.561 0.0724795 190.767 0.028582C189.063 -0.0131615 157.156 -0.00790704 145.506 0.0360335ZM109.963 7.42951C110.11 7.43981 110.324 7.43942 110.438 7.42865C110.551 7.41788 110.43 7.40943 110.169 7.4099C109.908 7.41038 109.815 7.41921 109.963 7.42951Z" fill="#EFAA1A"/>
</svg>
