<svg width="183" height="11" viewBox="0 0 183 11" fill="none" xmlns="http://www.w3.org/2000/svg">
<path fill-rule="evenodd" clip-rule="evenodd" d="M137.967 0.044041C112.239 0.16909 104.883 0.250437 90.6077 0.567981C75.8143 0.897057 65.2273 1.22692 48.4292 1.88218C44.5351 2.03408 40.3654 2.17824 35.4772 2.32993C17.5208 2.88715 14.0266 3.03563 8.22171 3.48791C5.34557 3.71205 2.85823 3.86716 1.46414 3.90944C0.224689 3.94698 0 3.97062 0 4.06345C0 4.14548 1.98233 4.21735 3.06658 4.1746C3.45514 4.15933 4.50786 4.12189 5.40605 4.09151C6.30425 4.06108 8.28084 3.97942 9.79847 3.91002C13.3722 3.74654 15.0881 3.69499 21.23 3.56657C31.5553 3.3507 39.3552 3.14325 48.9361 2.8297C52.4669 2.71413 57.155 2.56071 59.354 2.48873C76.0321 1.94278 96.4045 1.45596 108.853 1.30595C123.96 1.12383 170.858 0.96282 170.065 1.09571C169.752 1.14842 164.385 1.54041 161.168 1.74565C158.213 1.9342 153.276 2.20615 147.202 2.5149C144.322 2.66138 140.369 2.86409 138.418 2.96539C131.087 3.34601 128.673 3.46406 124.508 3.64565C105.322 4.48214 92.6487 5.21105 75.009 6.4925C64.5241 7.25416 55.9301 8.12856 46.3396 9.40954C40.8869 10.1378 40.3556 10.2672 40.8923 10.7361C41.2416 11.0411 43.9928 11.0807 49.5419 10.8603C59.6828 10.4577 69.2125 10.1454 78.4441 9.9132C84.2347 9.76756 85.0017 9.74314 90.8893 9.51705C93.0883 9.43265 96.8895 9.30923 99.3363 9.24289L103.785 9.12226L97.8721 9.07472C88.9121 9.00264 79.3006 9.00701 76.1353 9.08462C65.6556 9.34156 59.9556 9.53932 50.6452 9.96891C48.426 10.0713 46.5538 10.1463 46.4846 10.1356C45.8179 10.0316 60.7416 8.46121 67.8611 7.88615C83.9324 6.5879 100.482 5.61927 125.916 4.48819C128.239 4.38489 132.902 4.15891 136.278 3.98605C139.654 3.81314 144.975 3.54093 148.103 3.38102C160.144 2.76568 163.731 2.53648 175.303 1.64324C182.714 1.07112 182.753 1.06623 182.955 0.689977C183.178 0.27629 182.584 0.088586 180.883 0.0349335C179.267 -0.0160863 149.013 -0.00966416 137.967 0.044041ZM104.265 9.08051C104.405 9.09309 104.608 9.09262 104.715 9.07946C104.823 9.06629 104.709 9.05597 104.461 9.05655C104.213 9.05713 104.125 9.06793 104.265 9.08051Z" fill="#EFAA1A"/>
</svg>
