<svg width="263" height="26" viewBox="0 0 263 26" fill="none" xmlns="http://www.w3.org/2000/svg">
<path fill-rule="evenodd" clip-rule="evenodd" d="M198.28 0.104097C161.305 0.399667 150.733 0.591941 130.218 1.3425C108.957 2.12032 93.742 2.9 69.6005 4.44879C64.004 4.80783 58.0115 5.14857 50.9864 5.50711C25.1802 6.82417 20.1584 7.17512 11.8159 8.24415C7.68244 8.77394 4.10772 9.14056 2.1042 9.2405C0.322914 9.32923 0 9.38511 0 9.60451C0 9.79841 2.84893 9.96828 4.40717 9.86723C4.96559 9.83114 6.47851 9.74266 7.76936 9.67085C9.0602 9.59892 11.9009 9.40589 14.082 9.24187C19.218 8.85545 21.684 8.73361 30.5109 8.43007C45.3499 7.91983 56.5596 7.42949 70.3289 6.68839C75.4032 6.41522 82.1407 6.05258 85.3011 5.88246C109.27 4.59203 138.549 3.44136 156.439 3.0868C178.15 2.65632 245.549 2.27576 244.411 2.58987C243.96 2.71444 236.248 3.64098 231.624 4.12608C227.377 4.57174 220.282 5.21453 211.553 5.9443C207.414 6.29052 201.732 6.76966 198.928 7.0091C188.393 7.90876 184.923 8.18777 178.938 8.617C151.365 10.5941 133.151 12.317 107.8 15.3459C92.7313 17.1462 80.3805 19.213 66.5973 22.2407C58.7609 23.9621 57.9974 24.2679 58.7687 25.3761C59.2706 26.0972 63.2246 26.1906 71.1995 25.6698C85.7737 24.7181 99.4693 23.98 112.737 23.4312C121.059 23.087 122.161 23.0292 130.622 22.4948C133.783 22.2954 139.245 22.0036 142.762 21.8468L149.155 21.5617L140.658 21.4493C127.781 21.279 113.968 21.2893 109.418 21.4727C94.3576 22.0801 86.1657 22.5475 72.7851 23.5629C69.5958 23.8049 66.9052 23.9821 66.8058 23.9568C65.8476 23.7111 87.2954 19.9992 97.5271 18.64C120.624 15.5714 144.409 13.2819 180.961 10.6085C184.3 10.3643 191.001 9.83015 195.853 9.42158C200.704 9.01288 208.352 8.36947 212.848 7.99151C230.152 6.53706 235.307 5.99533 251.938 3.88403C262.589 2.53175 262.646 2.52018 262.936 1.63085C263.255 0.653048 262.402 0.209385 259.957 0.0825702C257.635 -0.0380222 214.156 -0.0228426 198.28 0.104097ZM149.845 21.463C150.047 21.4928 150.338 21.4916 150.493 21.4605C150.648 21.4294 150.483 21.405 150.127 21.4064C149.771 21.4078 149.644 21.4333 149.845 21.463Z" fill="#EFAA1A"/>
</svg>
