<svg width="32" height="33" viewBox="0 0 32 33" fill="none" xmlns="http://www.w3.org/2000/svg">
<path d="M0 16.4805C0 25.317 7.16344 32.4805 16 32.4805C24.8366 32.4805 32 25.317 32 16.4805C32 7.64391 24.8366 0.480469 16 0.480469C7.16344 0.480469 0 7.64391 0 16.4805Z" fill="#25D366"/>
<path fill-rule="evenodd" clip-rule="evenodd" d="M21.6 10.7805C20.1 9.28047 18.1 8.48047 16 8.48047C11.6 8.48047 8 12.0805 8 16.4805C8 17.8805 8.40001 19.2805 9.10001 20.4805L8 24.4805L12.2 23.3805C13.4 23.9805 14.7 24.3805 16 24.3805C20.4 24.3805 24 20.7805 24 16.3805C24 14.2805 23.1 12.2805 21.6 10.7805ZM16 23.0805C14.8 23.0805 13.6 22.7805 12.6 22.1805L12.4 22.0805L9.89999 22.7805L10.6 20.3805L10.4 20.0805C9.69999 18.9805 9.39999 17.7805 9.39999 16.5805C9.39999 12.9805 12.4 9.98047 16 9.98047C17.8 9.98047 19.4 10.6805 20.7 11.8805C22 13.1805 22.6 14.7805 22.6 16.5805C22.6 20.0805 19.7 23.0805 16 23.0805ZM19.6 18.0805C19.4 17.9805 18.4 17.4805 18.2 17.4805C18 17.3805 17.9 17.3805 17.8 17.5805C17.7 17.7805 17.3 18.1805 17.2 18.3805C17.1 18.4805 17 18.4805 16.8 18.4805C16.6 18.3805 16 18.1805 15.2 17.4805C14.6 16.9805 14.2 16.2805 14.1 16.0805C14 15.8805 14.1 15.7805 14.2 15.6805C14.3 15.5805 14.4 15.4805 14.5 15.3805C14.6 15.2805 14.6 15.1805 14.7 15.0805C14.8 14.9805 14.7 14.8805 14.7 14.7805C14.7 14.6805 14.3 13.6805 14.1 13.2805C14 12.9805 13.8 12.9805 13.7 12.9805C13.6 12.9805 13.5 12.9805 13.3 12.9805C13.2 12.9805 13 12.9805 12.8 13.1805C12.6 13.3805 12.1 13.8805 12.1 14.8805C12.1 15.8805 12.8 16.7805 12.9 16.9805C13 17.0805 14.3 19.1805 16.3 19.9805C18 20.6805 18.3 20.4805 18.7 20.4805C19.1 20.4805 19.9 19.9805 20 19.5805C20.2 19.0805 20.2 18.6805 20.1 18.6805C20 18.1805 19.8 18.1805 19.6 18.0805Z" fill="white"/>
</svg>
